<?xml version="1.0" encoding="UTF-8" standalone="no"?>
<!-- Uploaded to: SVG Repo, www.svgrepo.com, Generator: SVG Repo Mixer Tools -->

<svg
   xmlns:dc="http://purl.org/dc/elements/1.1/"
   xmlns:cc="http://creativecommons.org/ns#"
   xmlns:rdf="http://www.w3.org/1999/02/22-rdf-syntax-ns#"
   xmlns:svg="http://www.w3.org/2000/svg"
   xmlns="http://www.w3.org/2000/svg"
   xmlns:sodipodi="http://sodipodi.sourceforge.net/DTD/sodipodi-0.dtd"
   xmlns:inkscape="http://www.inkscape.org/namespaces/inkscape"
   width="800px"
   height="800px"
   viewBox="0 0 24 24"
   id="timer-7-second"
   data-name="Line Color"
   class="icon line-color"
   version="1.1"
   sodipodi:docname="alert-missing.svg"
   inkscape:version="0.92.5 (2060ec1f9f, 2020-04-08)"
   fill="#000000">
  <metadata
     id="metadata10">
    <rdf:RDF>
      <cc:Work
         rdf:about="">
        <dc:format>image/svg+xml</dc:format>
        <dc:type
           rdf:resource="http://purl.org/dc/dcmitype/StillImage" />
        <dc:title />
      </cc:Work>
    </rdf:RDF>
  </metadata>
  <defs
     id="defs8" />
  <sodipodi:namedview
     pagecolor="#ffffff"
     bordercolor="#666666"
     borderopacity="1"
     objecttolerance="10"
     gridtolerance="10"
     guidetolerance="10"
     inkscape:pageopacity="0"
     inkscape:pageshadow="2"
     inkscape:window-width="1920"
     inkscape:window-height="1009"
     id="namedview6"
     showgrid="false"
     inkscape:zoom="0.59"
     inkscape:cx="363.02353"
     inkscape:cy="491.86599"
     inkscape:window-x="1920"
     inkscape:window-y="34"
     inkscape:window-maximized="1"
     inkscape:current-layer="timer-7-second" />
  <path
     style="opacity:1;vector-effect:none;fill:#008b8b;fill-opacity:1;stroke:#e04b59;stroke-width:0.00215433;stroke-linecap:butt;stroke-linejoin:miter;stroke-miterlimit:4;stroke-dasharray:none;stroke-dashoffset:0;stroke-opacity:1"
     d="m 11.974081,3.7751504 c -1.605571,0 -2.2668541,0.1436619 -3.5455081,0.7703319 -2.1966105,1.0765437 -3.806556,3.0630399 -4.4139843,5.4464649 -0.2834364,1.1120988 -0.2834364,2.8868648 0,3.9989648 0.5208048,2.043528 1.7231472,3.767995 3.4030662,4.880801 1.6468533,1.090904 2.7150932,1.390518 4.8116012,1.349531 1.245261,-0.02449 1.533853,-0.06384 2.24543,-0.30709 1.316214,-0.44995 2.233335,-1.027207 3.263262,-2.053945 1.024707,-1.02154 1.613137,-1.952834 2.031269,-3.215039 C 21.079505,10.689842 19.301755,6.4021175 15.597577,4.583627 14.241421,3.9178517 13.601828,3.7751504 11.974081,3.7751504 Z m 0.03533,1.0430274 c 0.626566,-5.013e-4 1.249857,0.057925 1.699804,0.175371 2.500001,0.6524181 4.479368,2.6275275 5.175118,5.1639842 0.285995,1.04264 0.240717,2.979206 -0.0934,3.994336 -0.325896,0.990205 -0.861995,1.951885 -1.457226,2.613926 l -0.464414,0.516504 -0.450059,-0.251543 c -0.247509,-0.138332 -0.942572,-0.430276 -1.54459,-0.648809 -0.602022,-0.218524 -1.132807,-0.457591 -1.179492,-0.531211 -0.234309,-0.369444 -0.0447,-1.148483 0.40377,-1.659258 0.154221,-0.175621 0.393686,-0.580955 0.532206,-0.900703 0.192497,-0.44432 0.303012,-0.581736 0.468985,-0.583066 0.119417,-9.18e-4 0.266859,-0.06168 0.327656,-0.134941 0.164939,-0.198723 0.273166,-1.768468 0.140684,-2.039883 C 15.507899,10.408876 15.438872,9.8710415 15.415057,9.337748 15.321425,7.239638 14.436445,6.3332633 12.277889,6.1247012 10.478236,5.9508158 9.0641055,6.6186686 8.9935338,7.6757948 8.9829918,7.8320579 8.8505508,8.1051983 8.698983,8.2828262 8.1415437,8.9361434 8.118945,9.2151851 8.452479,11.32806 c 0.1915098,1.213152 0.2640561,1.377891 0.606504,1.377891 0.1747029,0 0.2741598,0.121376 0.4528125,0.552363 0.1259154,0.303817 0.4558782,0.811733 0.7332425,1.128692 0.414111,0.473229 0.504316,0.645367 0.504316,0.962754 0,0.519654 -0.170008,0.649208 -1.3456053,1.025566 -0.7932696,0.25394 -1.6656255,0.604262 -2.239746,0.899355 -0.035249,0.01803 -0.2580105,-0.18723 -0.4950588,-0.456269 h -5.85e-5 C 5.3907279,15.367856 4.7128113,13.333105 4.877733,11.442494 5.1499764,8.3217146 7.3017663,5.758853 10.290038,4.996244 10.753034,4.8780857 11.382847,4.8186791 12.009413,4.8181778 Z m 0.06158,2.4646875 c 0.734268,-0.0034 0.974564,0.062626 1.408711,0.3878904 0.427394,0.3201807 0.637793,0.7348857 0.637793,1.2569532 0,0.5900427 -0.197479,0.9936039 -0.879727,1.7978321 -0.508983,0.599984 -0.596561,0.762808 -0.598242,1.111992 -0.0011,0.224988 0.03558,0.512424 0.08144,0.638731 0.08114,0.223353 0.06503,0.229629 -0.589394,0.229629 -0.628328,0 -0.679428,-0.01735 -0.772383,-0.261797 -0.141531,-0.372268 -0.123149,-1.016044 0.04002,-1.40004 0.07675,-0.180655 0.400616,-0.645209 0.719766,-1.032362 0.472068,-0.572654 0.574542,-0.7629695 0.549434,-1.0206452 -0.02654,-0.2709162 -0.08528,-0.3301698 -0.406875,-0.409629 -0.31535,-0.077916 -0.461607,-0.050519 -0.907149,0.1699806 -0.428396,0.2120247 -0.57692,0.2421126 -0.767218,0.1553907 -0.264861,-0.120675 -0.461881,-0.5740698 -0.38209,-0.8791992 0.08397,-0.3211329 1.136555,-0.7412391 1.865918,-0.7447266 z m 0.05309,5.6944337 c 0.483511,0.0042 0.870644,0.373624 0.870644,0.920742 0,0.785173 -0.994931,1.153229 -1.568086,0.580078 -0.461256,-0.461259 -0.324599,-1.163782 0.27504,-1.414336 0.144108,-0.06022 0.287019,-0.08766 0.422402,-0.08648 z"
     id="path902"
     inkscape:connector-curvature="0" />
  <circle
     id="primary"
     cx="12"
     cy="12"
     r="9.0310383"
     style="opacity:1;fill:none;stroke:#696969;stroke-width:2.40826869;stroke-linecap:round;stroke-linejoin:round;stroke-miterlimit:4;stroke-dasharray:none;stroke-opacity:1" />
</svg>
