<?xml version="1.0" encoding="UTF-8" standalone="no"?>
<!-- Uploaded to: SVG Repo, www.svgrepo.com, Generator: SVG Repo Mixer Tools -->

<svg
   xmlns:dc="http://purl.org/dc/elements/1.1/"
   xmlns:cc="http://creativecommons.org/ns#"
   xmlns:rdf="http://www.w3.org/1999/02/22-rdf-syntax-ns#"
   xmlns:svg="http://www.w3.org/2000/svg"
   xmlns="http://www.w3.org/2000/svg"
   xmlns:sodipodi="http://sodipodi.sourceforge.net/DTD/sodipodi-0.dtd"
   xmlns:inkscape="http://www.inkscape.org/namespaces/inkscape"
   width="800px"
   height="800px"
   viewBox="0 0 24 24"
   id="timer-7-second"
   data-name="Line Color"
   class="icon line-color"
   version="1.1"
   sodipodi:docname="mood-depressed.svg"
   fill="#000000"
   inkscape:version="0.92.5 (2060ec1f9f, 2020-04-08)">
  <metadata
     id="metadata10">
    <rdf:RDF>
      <cc:Work
         rdf:about="">
        <dc:format>image/svg+xml</dc:format>
        <dc:type
           rdf:resource="http://purl.org/dc/dcmitype/StillImage" />
        <dc:title></dc:title>
      </cc:Work>
    </rdf:RDF>
  </metadata>
  <defs
     id="defs8" />
  <sodipodi:namedview
     pagecolor="#ffffff"
     bordercolor="#666666"
     borderopacity="1"
     objecttolerance="10"
     gridtolerance="10"
     guidetolerance="10"
     inkscape:pageopacity="0"
     inkscape:pageshadow="2"
     inkscape:window-width="1920"
     inkscape:window-height="1009"
     id="namedview6"
     showgrid="false"
     inkscape:zoom="0.2085965"
     inkscape:cx="753.70134"
     inkscape:cy="-232.69015"
     inkscape:window-x="1920"
     inkscape:window-y="34"
     inkscape:window-maximized="1"
     inkscape:current-layer="timer-7-second" />
  <g
     transform="matrix(0.52684281,0,0,0.52684281,-24.17264,8.5984333)"
     id="g1499"
     inkscape:export-xdpi="96"
     inkscape:export-ydpi="96">
    <circle
       r="20.312483"
       cy="6.3032603"
       cx="68.749413"
       id="circle1383"
       style="opacity:1;vector-effect:none;fill:#009cff;fill-opacity:0.83121021;stroke:#2e8fd6;stroke-width:1.01900005;stroke-linecap:butt;stroke-linejoin:miter;stroke-miterlimit:4;stroke-dasharray:none;stroke-dashoffset:0;stroke-opacity:1" />
    <path
       sodipodi:nodetypes="ccc"
       inkscape:connector-curvature="0"
       id="path1393"
       d="M 70.209912,24.939922 C 78.754269,20.402892 86.889884,13.847232 86.133954,-0.15263816 90.752904,12.708332 82.298636,24.372472 70.209912,24.939922 Z"
       style="fill:#696969;fill-opacity:0.08974358;stroke-width:0.26458335" />
    <path
       style="fill:#ffffe0;fill-opacity:0.52564105;stroke-width:0.26458335"
       d="M 63.840246,-11.977728 C 56.338551,-5.8690982 49.629494,2.1404818 53.087362,15.727632 46.060857,4.0072618 52.091344,-9.0755582 63.840246,-11.977728 Z"
       id="path1395"
       inkscape:connector-curvature="0"
       sodipodi:nodetypes="ccc" />
    <g
       style="fill:#151515;fill-opacity:1"
       transform="translate(16.358515,-172.73512)"
       id="g1432">
      <path
         inkscape:connector-curvature="0"
         style="fill:#151515;fill-opacity:1;stroke-width:0.26458335"
         d="m 56.723788,183.92405 c -1.90307,-2.49506 -4.26767,-2.60193 -7.42357,-0.33554 -0.95238,0.68395 -1.24965,0.78548 -1.51157,0.51626 -0.78135,-0.80313 3.34857,-3.2009 5.51322,-3.2009 1.77002,0 3.70298,1.15808 4.50463,2.69884 0.805,1.54718 0.0281,1.77774 -1.08271,0.32134 z"
         id="path953" />
      <path
         inkscape:connector-curvature="0"
         style="fill:#151515;fill-opacity:1;stroke-width:0.26458335"
         d="m 43.201558,176.16764 c -1.0956,-0.66809 -2.13602,-2.33399 -1.71844,-2.75156 0.23069,-0.2307 0.54605,-0.033 1.29032,0.80888 0.54175,0.61281 1.32403,1.23663 1.7384,1.38627 1.06178,0.38343 2.53741,-0.0706 3.88292,-1.19475 1.24546,-1.04055 1.5814,-1.13357 1.5814,-0.4379 0,0.55021 -0.76759,1.32409 -2.11667,2.13402 -1.21827,0.7314 -3.50445,0.75841 -4.65793,0.055 z"
         id="path947" />
      <path
         inkscape:connector-curvature="0"
         style="fill:#151515;fill-opacity:1;stroke-width:0.26458335"
         d="m 57.913658,176.11264 c -1.34908,-0.80993 -2.11667,-1.58381 -2.11667,-2.13402 0,-0.64648 0.15376,-0.61388 1.28484,0.27242 1.24837,0.9782 1.87084,1.29444 2.68391,1.36355 1.56831,0.13331 1.97088,-0.0276 3.09817,-1.23809 0.83521,-0.89688 1.23038,-1.15612 1.4411,-0.94541 0.40184,0.40184 -0.66397,2.08445 -1.73342,2.73659 -1.15348,0.70337 -3.43967,0.67636 -4.65793,-0.055 z"
         id="path945" />
    </g>
  </g>
</svg>
