<?xml version="1.0" encoding="UTF-8" standalone="no"?>
<!-- Uploaded to: SVG Repo, www.svgrepo.com, Generator: SVG Repo Mixer Tools -->

<svg
   xmlns:dc="http://purl.org/dc/elements/1.1/"
   xmlns:cc="http://creativecommons.org/ns#"
   xmlns:rdf="http://www.w3.org/1999/02/22-rdf-syntax-ns#"
   xmlns:svg="http://www.w3.org/2000/svg"
   xmlns="http://www.w3.org/2000/svg"
   xmlns:sodipodi="http://sodipodi.sourceforge.net/DTD/sodipodi-0.dtd"
   xmlns:inkscape="http://www.inkscape.org/namespaces/inkscape"
   width="800px"
   height="800px"
   viewBox="0 0 24 24"
   id="timer-7-second"
   data-name="Line Color"
   class="icon line-color"
   version="1.1"
   sodipodi:docname="mood-empty.svg"
   fill="#000000"
   inkscape:version="0.92.5 (2060ec1f9f, 2020-04-08)">
  <metadata
     id="metadata10">
    <rdf:RDF>
      <cc:Work
         rdf:about="">
        <dc:format>image/svg+xml</dc:format>
        <dc:type
           rdf:resource="http://purl.org/dc/dcmitype/StillImage" />
        <dc:title></dc:title>
      </cc:Work>
    </rdf:RDF>
  </metadata>
  <defs
     id="defs8" />
  <sodipodi:namedview
     pagecolor="#ffffff"
     bordercolor="#666666"
     borderopacity="1"
     objecttolerance="10"
     gridtolerance="10"
     guidetolerance="10"
     inkscape:pageopacity="0"
     inkscape:pageshadow="2"
     inkscape:window-width="1920"
     inkscape:window-height="1009"
     id="namedview6"
     showgrid="false"
     inkscape:zoom="0.59"
     inkscape:cx="930.14901"
     inkscape:cy="575.41027"
     inkscape:window-x="1920"
     inkscape:window-y="34"
     inkscape:window-maximized="1"
     inkscape:current-layer="timer-7-second" />
  <path
     style="opacity:1;vector-effect:none;fill:#797979;fill-opacity:0.83121021;stroke:#a7a7a7;stroke-width:15.54900265;stroke-linecap:butt;stroke-linejoin:miter;stroke-miterlimit:4;stroke-dasharray:none;stroke-dashoffset:0;stroke-opacity:1"
     d="M 400 90.050781 A 309.94978 309.94978 0 0 0 229.25 141.5332 L 621.05664 616.85547 A 309.94978 309.94978 0 0 0 709.94922 400 A 309.94978 309.94978 0 0 0 400 90.050781 z M 171.0918 191.57227 A 309.94978 309.94978 0 0 0 90.050781 400 A 309.94978 309.94978 0 0 0 400 709.94922 A 309.94978 309.94978 0 0 0 560.96484 664.54492 L 171.0918 191.57227 z "
     transform="scale(0.03)"
     id="circle1397" />
  <path
     style="fill:#696969;fill-opacity:0.44551284;stroke-width:4.0372982"
     d="M 325.0918 121.04883 C 294.31426 128.65138 266.10857 140.83288 241.04102 156.70117 L 260.08789 179.80859 C 280.5667 158.81981 302.59217 139.37026 325.0918 121.04883 z M 182.64258 206.44336 C 107.19026 291.91921 88.366582 422.63281 161.01172 543.80664 C 127.82213 413.39315 156.02437 316.66152 210 239.63477 L 182.64258 206.44336 z "
     transform="scale(0.03)"
     id="path1409" />
  <g
     id="g1452"
     transform="matrix(0.45777238,0,0,0.45777238,-58.646487,-91.945409)"
     style="fill:#d3d3d3;fill-opacity:1" />
  <path
     style="fill:#ffffff;fill-opacity:0.24038463;stroke-width:4.0372982"
     d="M 665.27344 301.48828 C 671.65941 419.75678 636.44909 503.19823 581.62891 565.88281 L 609.91211 600.19336 C 678.62218 528.17041 707.13647 418.05117 665.27344 301.48828 z M 525.67188 618.5918 C 493.4696 643.98933 458.11826 665.35267 422.28711 684.37891 C 469.06556 682.18311 512.27173 669.09067 549.56836 647.58008 L 525.67188 618.5918 z "
     transform="scale(0.03)"
     id="path1407" />
  <circle
     style="opacity:1;vector-effect:none;fill:#797979;fill-opacity:0.04166667;stroke:#a7a7a7;stroke-width:0.53685284;stroke-linecap:butt;stroke-linejoin:miter;stroke-miterlimit:4;stroke-dasharray:none;stroke-dashoffset:0;stroke-opacity:1"
     id="circle1367"
     cx="12"
     cy="12"
     r="10.701486" />
  <g
     style="fill:#d3d3d3;fill-opacity:1"
     transform="matrix(0.52684281,0,0,0.52684281,-43.98504,-107.20646)"
     id="g1371" />
  <path
     style="fill:#000000;stroke-width:3.10700321;fill-opacity:0.43589744"
     d="M 320.63086 256.36719 L 334.04883 272.64648 C 334.07786 272.1468 334.10156 271.63913 334.10156 271.09961 C 334.10156 263.56651 329.16756 258.4486 320.63086 256.36719 z M 475.03906 257.42773 C 458.0209 257.42773 449.01742 262.6286 449.10742 272.4082 C 449.21099 283.76314 454.61674 286.65907 479.7207 288.81641 C 512.93777 291.67101 534.03355 301.49313 551.54102 322.25586 C 565.56145 338.8833 572.65227 341.55872 580.88477 333.32617 C 590.23873 323.97224 584.34734 308.78648 564.35938 290.72852 C 541.75884 270.31025 507.20476 257.42773 475.03906 257.42773 z M 238.60742 277.45312 C 225.66504 285.48554 215.01469 295.42675 207.0625 307.08008 C 196.0523 323.21534 195.45139 326.50267 202.27539 333.32617 C 210.64346 341.69428 220.74234 339.24474 230.16797 326.55859 C 238.31814 315.58926 247.29638 307.22496 258 300.97852 L 238.60742 277.45312 z M 569.04883 365.24219 L 519.15039 367.46289 C 457.36806 370.21139 437.87 372.91886 431.0957 379.69336 C 428.50392 382.28732 427.30829 383.84284 427.42578 385.92578 L 439.82617 400.96875 C 446.71137 402.64128 459.06195 401.85057 484.93555 399.48633 L 509.9375 397.20312 L 513.87891 408.10352 C 516.04695 414.09906 521.57347 421.04382 526.16016 423.53516 L 526.16211 423.53516 C 558.57035 441.12964 597.86443 401.87685 575.85352 373.89453 L 569.04883 365.24219 z M 312.41016 366.98438 L 301.66016 367.46289 C 239.87779 370.21139 220.37977 372.91886 213.60547 379.69336 C 208.7925 384.50933 208.75024 385.72469 213.10938 393.43945 C 218.50104 402.98119 223.32421 403.51796 267.44531 399.48633 L 292.44727 397.20312 L 296.38867 408.10352 C 298.55668 414.09906 304.08324 421.04382 308.66992 423.53516 L 308.67188 423.53516 C 324.53894 432.14941 342.05123 427.1334 353.2168 416.48828 L 312.41016 366.98438 z M 392.4082 484.53906 C 384.15924 484.78576 376.13047 487.97367 367.3125 493.81445 C 351.05947 504.57999 321.74979 541.45469 321.70312 551.19336 C 321.68659 554.69653 323.34972 559.2423 325.40039 561.29297 L 325.40234 561.29297 C 327.45264 563.34344 332.96306 565.01953 337.64844 565.01953 C 344.3989 565.01953 349.15742 561.13274 360.58398 546.2832 C 387.29468 511.5706 395.31117 511.04342 427.27344 541.90039 C 448.8639 562.74429 455.60189 565.39132 465.12695 556.77148 C 465.88384 556.0865 466.55866 555.40692 467.16602 554.72656 L 413.94141 490.15625 C 406.23116 486.15675 399.24258 484.33467 392.4082 484.53906 z "
     transform="scale(0.03)"
     id="path1408" />
</svg>
