<?xml version="1.0" encoding="UTF-8" standalone="no"?>
<!-- Uploaded to: SVG Repo, www.svgrepo.com, Generator: SVG Repo Mixer Tools -->

<svg
   xmlns:dc="http://purl.org/dc/elements/1.1/"
   xmlns:cc="http://creativecommons.org/ns#"
   xmlns:rdf="http://www.w3.org/1999/02/22-rdf-syntax-ns#"
   xmlns:svg="http://www.w3.org/2000/svg"
   xmlns="http://www.w3.org/2000/svg"
   xmlns:sodipodi="http://sodipodi.sourceforge.net/DTD/sodipodi-0.dtd"
   xmlns:inkscape="http://www.inkscape.org/namespaces/inkscape"
   width="800px"
   height="800px"
   viewBox="0 0 24 24"
   id="timer-7-second"
   data-name="Line Color"
   class="icon line-color"
   version="1.1"
   sodipodi:docname="mood-angry.svg"
   fill="#000000"
   inkscape:version="0.92.5 (2060ec1f9f, 2020-04-08)">
  <metadata
     id="metadata10">
    <rdf:RDF>
      <cc:Work
         rdf:about="">
        <dc:format>image/svg+xml</dc:format>
        <dc:type
           rdf:resource="http://purl.org/dc/dcmitype/StillImage" />
        <dc:title></dc:title>
      </cc:Work>
    </rdf:RDF>
  </metadata>
  <defs
     id="defs8" />
  <sodipodi:namedview
     pagecolor="#ffffff"
     bordercolor="#666666"
     borderopacity="1"
     objecttolerance="10"
     gridtolerance="10"
     guidetolerance="10"
     inkscape:pageopacity="0"
     inkscape:pageshadow="2"
     inkscape:window-width="1920"
     inkscape:window-height="1009"
     id="namedview6"
     showgrid="false"
     inkscape:zoom="0.2085965"
     inkscape:cx="753.70134"
     inkscape:cy="-232.69015"
     inkscape:window-x="1920"
     inkscape:window-y="34"
     inkscape:window-maximized="1"
     inkscape:current-layer="timer-7-second" />
  <g
     transform="matrix(0.52684281,0,0,0.52684281,-49.230275,8.5984331)"
     id="g1507"
     inkscape:export-xdpi="96"
     inkscape:export-ydpi="96">
    <circle
       style="opacity:1;vector-effect:none;fill:#ff457a;fill-opacity:0.83121021;stroke:#e04b59;stroke-width:1.01900005;stroke-linecap:butt;stroke-linejoin:miter;stroke-miterlimit:4;stroke-dasharray:none;stroke-dashoffset:0;stroke-opacity:1"
       id="circle1397"
       cx="116.3744"
       cy="6.3032603"
       r="20.312483" />
    <path
       style="fill:#696969;fill-opacity:0.08974358;stroke-width:0.26458335"
       d="m 117.83492,24.939922 c 8.54436,-4.53703 16.67998,-11.09269 15.92405,-25.09256016 C 138.37793,12.708332 129.92365,24.372472 117.83492,24.939922 Z"
       id="path1407"
       inkscape:connector-curvature="0"
       sodipodi:nodetypes="ccc" />
    <path
       sodipodi:nodetypes="ccc"
       inkscape:connector-curvature="0"
       id="path1409"
       d="m 111.46525,-11.977728 c -7.5017,6.1086298 -14.210753,14.1182098 -10.75289,27.70536 -7.0265,-11.7203702 -0.996013,-24.8031902 10.75289,-27.70536 z"
       style="fill:#ffffe0;fill-opacity:0.44551284;stroke-width:0.26458335" />
    <g
       style="fill:#151515;fill-opacity:1"
       transform="translate(-37.952272,-220.76463)"
       id="g1452">
      <path
         inkscape:connector-curvature="0"
         style="fill:#151515;fill-opacity:1;stroke-width:0.26458335"
         d="m 157.92616,234.0988 c -0.87359,-0.95094 -1.45764,-1.34503 -2.19338,-1.48 -1.35666,-0.24888 -3.17804,0.29792 -4.59492,1.37945 -1.23224,0.94059 -1.94295,1.12149 -1.94295,0.49453 0,-0.55634 1.24963,-1.64076 2.76393,-2.39853 1.6492,-0.82526 4.06226,-0.89837 5.44228,-0.16488 1.00675,0.5351 2.72218,2.57563 2.56421,3.05016 -0.21659,0.65057 -0.90596,0.35283 -2.03917,-0.88073 z"
         id="path1027" />
      <path
         inkscape:connector-curvature="0"
         style="fill:#151515;fill-opacity:1;stroke-width:0.26458335"
         d="m 145.08184,228.93785 c -0.75813,-0.75813 -0.84357,-2.0545 -0.24493,-3.71619 0.20971,-0.58209 0.38307,-1.07789 0.38526,-1.10179 0.002,-0.0239 -0.62011,-0.42746 -1.3829,-0.89681 -1.442,-0.88727 -2.02995,-1.47292 -2.04428,-2.0363 -0.0133,-0.52372 0.7463,-0.38645 1.66288,0.30051 2.40587,1.80313 5.00387,2.53078 9.70579,2.71842 4.17766,0.16671 7.32938,-0.25679 11.24471,-1.51098 1.38624,-0.44406 2.63796,-0.73473 2.78161,-0.64595 0.63109,0.39003 0.1425,0.92385 -1.39247,1.52136 -1.12534,0.43806 -1.61637,0.76244 -1.53697,1.01533 0.29323,0.93398 0.26514,3.07506 -0.0482,3.6737 -0.40791,0.77934 -1.37652,1.31708 -2.05352,1.14004 -0.70558,-0.18452 -1.12235,-1.42908 -1.0172,-3.03755 0.0833,-1.27423 0.0427,-1.39904 -0.43734,-1.34503 -5.3857,0.60588 -6.84683,0.66527 -9.35369,0.38021 -1.47127,-0.1673 -2.82607,-0.33468 -3.01067,-0.37196 -0.20669,-0.0418 -0.34735,0.23715 -0.36614,0.72596 -0.0168,0.43657 -0.0465,1.13034 -0.0661,1.54171 -0.0358,0.75098 -1.30013,2.29475 -1.87939,2.29475 -0.16333,0 -0.58921,-0.29224 -0.9464,-0.64943 z"
         id="path1025" />
    </g>
  </g>
</svg>
