<?xml version="1.0" encoding="UTF-8" standalone="no"?>
<!-- Uploaded to: SVG Repo, www.svgrepo.com, Generator: SVG Repo Mixer Tools -->

<svg
   xmlns:dc="http://purl.org/dc/elements/1.1/"
   xmlns:cc="http://creativecommons.org/ns#"
   xmlns:rdf="http://www.w3.org/1999/02/22-rdf-syntax-ns#"
   xmlns:svg="http://www.w3.org/2000/svg"
   xmlns="http://www.w3.org/2000/svg"
   xmlns:sodipodi="http://sodipodi.sourceforge.net/DTD/sodipodi-0.dtd"
   xmlns:inkscape="http://www.inkscape.org/namespaces/inkscape"
   width="800px"
   height="800px"
   viewBox="0 0 24 24"
   id="timer-7-second"
   data-name="Line Color"
   class="icon line-color"
   version="1.1"
   sodipodi:docname="mood-down.svg"
   fill="#000000"
   inkscape:version="0.92.5 (2060ec1f9f, 2020-04-08)">
  <metadata
     id="metadata10">
    <rdf:RDF>
      <cc:Work
         rdf:about="">
        <dc:format>image/svg+xml</dc:format>
        <dc:type
           rdf:resource="http://purl.org/dc/dcmitype/StillImage" />
        <dc:title></dc:title>
      </cc:Work>
    </rdf:RDF>
  </metadata>
  <defs
     id="defs8" />
  <sodipodi:namedview
     pagecolor="#ffffff"
     bordercolor="#666666"
     borderopacity="1"
     objecttolerance="10"
     gridtolerance="10"
     guidetolerance="10"
     inkscape:pageopacity="0"
     inkscape:pageshadow="2"
     inkscape:window-width="1920"
     inkscape:window-height="1009"
     id="namedview6"
     showgrid="false"
     inkscape:zoom="0.2085965"
     inkscape:cx="753.70134"
     inkscape:cy="-232.69015"
     inkscape:window-x="1920"
     inkscape:window-y="34"
     inkscape:window-maximized="1"
     inkscape:current-layer="timer-7-second" />
  <g
     transform="matrix(0.52684281,0,0,0.52684281,0.9455548,8.576279)"
     id="g1490"
     inkscape:export-xdpi="96"
     inkscape:export-ydpi="96">
    <circle
       style="opacity:1;vector-effect:none;fill:#7ac9ff;fill-opacity:1;stroke:#6bacff;stroke-width:1.01900005;stroke-linecap:butt;stroke-linejoin:miter;stroke-miterlimit:4;stroke-dasharray:none;stroke-dashoffset:0;stroke-opacity:1"
       id="circle1369"
       cx="21.124409"
       cy="6.3032603"
       r="20.312483" />
    <path
       style="fill:#696969;fill-opacity:0.08974358;stroke-width:0.26458335"
       d="M 22.584909,24.939922 C 31.129266,20.402892 39.264881,13.847232 38.508951,-0.15263816 43.127901,12.708332 34.673633,24.372472 22.584909,24.939922 Z"
       id="path1379"
       inkscape:connector-curvature="0"
       sodipodi:nodetypes="ccc" />
    <path
       sodipodi:nodetypes="ccc"
       inkscape:connector-curvature="0"
       id="path1381"
       d="M 16.215243,-11.977728 C 8.7135483,-5.8690982 2.0044921,2.1404818 5.4623593,15.727632 -1.5641446,4.0072618 4.466342,-9.0755582 16.215243,-11.977728 Z"
       style="fill:#ffffe0;fill-opacity:0.53525636;stroke-width:0.26458335" />
    <g
       style="fill:#151515;fill-opacity:1"
       transform="translate(-31.270534,-224.5064)"
       id="g1448">
      <path
         inkscape:connector-curvature="0"
         style="fill:#151515;fill-opacity:1;stroke-width:0.26458335"
         d="m 58.076368,237.59093 c -0.77328,-1.48045 -2.42644,-2.64035 -4.59448,-3.22361 -1.3049,-0.35105 -1.55947,-1.07587 -0.37787,-1.07587 2.01547,0 5.03501,1.86258 5.74081,3.54116 0.58833,1.39923 -0.0861,2.06474 -0.76846,0.75832 z"
         id="path1031" />
      <path
         inkscape:connector-curvature="0"
         style="fill:#151515;fill-opacity:1;stroke-width:0.26458335"
         d="m 43.199508,228.65294 c -0.32549,-0.49676 -0.39925,-1.00412 -0.28554,-1.96418 0.29063,-2.4539 1.57653,-3.37641 2.77091,-1.98786 0.54422,0.6327 0.62584,0.95068 0.52183,2.03307 -0.21578,2.24574 -2.0332,3.40548 -3.0072,1.91897 z"
         id="path1023" />
      <path
         inkscape:connector-curvature="0"
         style="fill:#151515;fill-opacity:1;stroke-width:0.26458335"
         d="m 59.870878,228.65694 c -0.53708,-0.8197 -0.39826,-2.94851 0.25755,-3.94941 0.54408,-0.83036 1.48588,-0.88211 2.17599,-0.11955 0.77937,0.86119 0.70145,3.15903 -0.1374,4.05195 -0.81986,0.87269 -1.73105,0.87944 -2.29614,0.017 z"
         id="path1021" />
    </g>
  </g>
</svg>
