<?xml version="1.0" encoding="UTF-8" standalone="no"?>
<!-- Uploaded to: SVG Repo, www.svgrepo.com, Generator: SVG Repo Mixer Tools -->

<svg
   xmlns:dc="http://purl.org/dc/elements/1.1/"
   xmlns:cc="http://creativecommons.org/ns#"
   xmlns:rdf="http://www.w3.org/1999/02/22-rdf-syntax-ns#"
   xmlns:svg="http://www.w3.org/2000/svg"
   xmlns="http://www.w3.org/2000/svg"
   xmlns:sodipodi="http://sodipodi.sourceforge.net/DTD/sodipodi-0.dtd"
   xmlns:inkscape="http://www.inkscape.org/namespaces/inkscape"
   width="800px"
   height="800px"
   viewBox="0 0 24 24"
   id="timer-7-second"
   data-name="Line Color"
   class="icon line-color"
   version="1.1"
   sodipodi:docname="mood-fantastic.svg"
   fill="#000000"
   inkscape:version="0.92.5 (2060ec1f9f, 2020-04-08)">
  <metadata
     id="metadata10">
    <rdf:RDF>
      <cc:Work
         rdf:about="">
        <dc:format>image/svg+xml</dc:format>
        <dc:type
           rdf:resource="http://purl.org/dc/dcmitype/StillImage" />
        <dc:title></dc:title>
      </cc:Work>
    </rdf:RDF>
  </metadata>
  <defs
     id="defs8" />
  <sodipodi:namedview
     pagecolor="#ffffff"
     bordercolor="#666666"
     borderopacity="1"
     objecttolerance="10"
     gridtolerance="10"
     guidetolerance="10"
     inkscape:pageopacity="0"
     inkscape:pageshadow="2"
     inkscape:window-width="1920"
     inkscape:window-height="1009"
     id="namedview6"
     showgrid="false"
     inkscape:zoom="0.07375"
     inkscape:cx="-1044.4838"
     inkscape:cy="-111.80625"
     inkscape:window-x="1920"
     inkscape:window-y="34"
     inkscape:window-maximized="1"
     inkscape:current-layer="timer-7-second" />
  <circle
     style="opacity:1;vector-effect:none;fill:#ffdb00;fill-opacity:0.83121021;stroke:#ffcb00;stroke-width:0.53685284;stroke-linecap:butt;stroke-linejoin:miter;stroke-miterlimit:4;stroke-dasharray:none;stroke-dashoffset:0;stroke-opacity:1"
     id="path1087"
     cx="12.041094"
     cy="12.00983"
     r="10.701486"
     inkscape:export-xdpi="96"
     inkscape:export-ydpi="96" />
  <path
     style="fill:#696969;fill-opacity:0.08974358;stroke-width:0.13939382"
     d="M 12.810538,21.828423 C 17.312071,19.43812 21.598265,15.984318 21.200007,8.6085869 23.63347,15.384298 19.179401,21.529465 12.810538,21.828423 Z"
     id="path1139"
     inkscape:connector-curvature="0"
     sodipodi:nodetypes="ccc"
     inkscape:export-xdpi="96"
     inkscape:export-ydpi="96" />
  <path
     sodipodi:nodetypes="ccc"
     inkscape:connector-curvature="0"
     id="path1339"
     d="M 9.454725,2.3786262 C 5.5025055,5.5969137 1.9678864,9.8167039 3.7896382,16.974995 0.08777528,10.800201 3.2648956,3.9076138 9.454725,2.3786262 Z"
     style="fill:#ffffe0;fill-opacity:0.625;stroke-width:0.13939382"
     inkscape:export-xdpi="96"
     inkscape:export-ydpi="96" />
  <g
     id="g1105"
     transform="matrix(0.52684282,0,0,0.52684282,51.343647,-67.337025)"
     style="fill:#151515;fill-opacity:1"
     inkscape:export-xdpi="96"
     inkscape:export-ydpi="96">
    <path
       inkscape:connector-curvature="0"
       id="path885"
       d="m -76.974336,158.63961 c -0.50288,-0.21814 -1.308412,-0.69721 -1.790082,-1.0646 -0.95011,-0.72469 -2.44848,-3.11102 -2.45248,-3.90589 -0.002,-0.41561 0.13259,-0.46589 0.85741,-0.32016 1.84714,0.3714 7.260172,0.47001 9.068612,0.16521 4.61934,-0.77855 4.4043,-0.86154 3.56695,1.37647 -0.59924,1.60162 -2.04047,3.14895 -3.49893,3.75653 -1.26603,0.52741 -4.52814,0.52313 -5.75148,-0.008 z"
       style="fill:#151515;fill-opacity:1;stroke-width:0.26458335" />
    <path
       inkscape:connector-curvature="0"
       id="path873"
       d="m -69.969786,145.30639 c -0.35795,-0.57918 1.093,-2.46358 2.4252,-3.14971 1.49441,-0.76967 4.27896,-0.004 5.81449,1.5987 0.5352,0.55863 0.64442,0.82995 0.42316,1.05121 -0.22126,0.22126 -0.64535,0.0434 -1.64308,-0.68897 -2.31533,-1.69961 -4.48691,-1.53703 -5.72792,0.42885 -0.6468,1.0246 -0.99989,1.23231 -1.29185,0.75992 z"
       style="fill:#151515;fill-opacity:1;stroke-width:0.26458335" />
    <path
       inkscape:connector-curvature="0"
       id="path871"
       d="m -79.987468,144.50351 c -0.56041,-0.9487 -1.69244,-1.58614 -2.81681,-1.58614 -0.95578,0 -2.5657,0.76426 -3.28476,1.55934 -0.27721,0.30653 -0.66416,0.55732 -0.85989,0.55732 -0.67076,0 -0.35601,-1.03129 0.51827,-1.69814 1.87527,-1.43034 3.9812,-1.8529 5.44973,-1.0935 0.9021,0.4665 2.40738,2.13508 2.40738,2.66856 0,0.68239 -0.92813,0.41494 -1.41392,-0.40744 z"
       style="fill:#151515;fill-opacity:1;stroke-width:0.26458335" />
  </g>
</svg>
