<?xml version="1.0" encoding="UTF-8" standalone="no"?>
<!-- Uploaded to: SVG Repo, www.svgrepo.com, Generator: SVG Repo Mixer Tools -->

<svg
   xmlns:dc="http://purl.org/dc/elements/1.1/"
   xmlns:cc="http://creativecommons.org/ns#"
   xmlns:rdf="http://www.w3.org/1999/02/22-rdf-syntax-ns#"
   xmlns:svg="http://www.w3.org/2000/svg"
   xmlns="http://www.w3.org/2000/svg"
   xmlns:sodipodi="http://sodipodi.sourceforge.net/DTD/sodipodi-0.dtd"
   xmlns:inkscape="http://www.inkscape.org/namespaces/inkscape"
   width="800px"
   height="800px"
   viewBox="0 0 24 24"
   id="timer-7-second"
   data-name="Line Color"
   class="icon line-color"
   version="1.1"
   sodipodi:docname="mood-great.svg"
   fill="#000000"
   inkscape:version="0.92.5 (2060ec1f9f, 2020-04-08)">
  <metadata
     id="metadata10">
    <rdf:RDF>
      <cc:Work
         rdf:about="">
        <dc:format>image/svg+xml</dc:format>
        <dc:type
           rdf:resource="http://purl.org/dc/dcmitype/StillImage" />
        <dc:title></dc:title>
      </cc:Work>
    </rdf:RDF>
  </metadata>
  <defs
     id="defs8" />
  <sodipodi:namedview
     pagecolor="#ffffff"
     bordercolor="#666666"
     borderopacity="1"
     objecttolerance="10"
     gridtolerance="10"
     guidetolerance="10"
     inkscape:pageopacity="0"
     inkscape:pageshadow="2"
     inkscape:window-width="1920"
     inkscape:window-height="1009"
     id="namedview6"
     showgrid="false"
     inkscape:zoom="0.07375"
     inkscape:cx="-1044.4838"
     inkscape:cy="-111.80625"
     inkscape:window-x="1920"
     inkscape:window-y="34"
     inkscape:window-maximized="1"
     inkscape:current-layer="timer-7-second" />
  <circle
     r="10.701486"
     cy="12.00983"
     cx="12.338767"
     id="circle1341"
     style="opacity:1;vector-effect:none;fill:#ffcf2b;fill-opacity:1;stroke:#ffcb00;stroke-width:0.53685284;stroke-linecap:butt;stroke-linejoin:miter;stroke-miterlimit:4;stroke-dasharray:none;stroke-dashoffset:0;stroke-opacity:1"
     inkscape:export-xdpi="96"
     inkscape:export-ydpi="96" />
  <path
     sodipodi:nodetypes="ccc"
     inkscape:connector-curvature="0"
     id="path1351"
     d="M 13.108216,21.828423 C 17.609745,19.43812 21.895938,15.984318 21.49768,8.6085869 23.931139,15.384298 19.477069,21.529465 13.108216,21.828423 Z"
     style="fill:#696969;fill-opacity:0.08974358;stroke-width:0.13939382"
     inkscape:export-xdpi="96"
     inkscape:export-ydpi="96" />
  <path
     style="fill:#ffffe0;fill-opacity:0.71153846;stroke-width:0.13939382"
     d="M 9.7523977,2.3786262 C 5.8001887,5.5969137 2.2655697,9.8167039 4.0873217,16.974995 0.38545866,10.800201 3.5625777,3.9076138 9.7523977,2.3786262 Z"
     id="path1353"
     inkscape:connector-curvature="0"
     sodipodi:nodetypes="ccc"
     inkscape:export-xdpi="96"
     inkscape:export-ydpi="96" />
  <g
     id="g1110"
     transform="matrix(0.52684282,0,0,0.52684282,50.338606,-39.774772)"
     style="fill:#151515;fill-opacity:1"
     inkscape:export-xdpi="96"
     inkscape:export-ydpi="96">
    <path
       inkscape:connector-curvature="0"
       id="path883"
       d="m -74.178022,105.78929 c -0.72951,-0.26071 -1.86745,-0.79111 -2.52876,-1.17866 -2.01689,-1.18198 -4.21272,-3.91704 -3.14478,-3.91704 0.15188,0 0.89602,0.63281 1.65365,1.40624 3.93649,4.01856 9.37678,4.28351 13.32006,0.64872 0.89301,-0.82315 1.24808,-1.0087 1.48222,-0.77456 0.45501,0.45501 -1.41917,2.28283 -3.3706,3.28723 -2.04221,1.05112 -5.29893,1.28315 -7.41179,0.52807 z"
       style="fill:#151515;fill-opacity:1;stroke-width:0.26458335" />
    <path
       inkscape:connector-curvature="0"
       id="path881"
       d="m -81.219782,95.757541 c -0.51634,-0.62301 -0.44237,-3.03606 0.11935,-3.89335 0.49753,-0.75933 1.74551,-0.9616 2.24199,-0.36339 0.79811,0.96168 0.67286,3.28193 -0.22568,4.18047 -0.62974,0.62974 -1.64684,0.66607 -2.13566,0.0763 z"
       style="fill:#151515;fill-opacity:1;stroke-width:0.26458335" />
    <path
       inkscape:connector-curvature="0"
       id="path879"
       d="m -64.739392,95.521771 c -0.60267,-1.32271 -0.0763,-3.88914 0.87222,-4.25314 1.93904,-0.74408 3.00545,2.57475 1.39187,4.33173 -0.75816,0.82555 -1.86972,0.78696 -2.26409,-0.0786 z"
       style="fill:#151515;fill-opacity:1;stroke-width:0.26458335" />
  </g>
</svg>
